<?xml version="1.0" encoding="utf-8"?>
<svg version="1.1" xmlns:xlink="http://www.w3.org/1999/xlink" width="559px" height="319px" xmlns="http://www.w3.org/2000/svg">
  <g transform="matrix(1 0 0 1 -300 -354 )">
    <path d="M 300 354  L 859 354  L 859 673  L 300 673  L 300 354  " fill-rule="nonzero" fill="rgba(204, 204, 204, 1)" stroke="none" class="fill" />
    <path d="M 322 376  L 837 376  L 837 651  L 322 651  L 322 376  " fill-rule="nonzero" fill="rgba(255, 255, 255, 1)" stroke="none" class="fill" />
    <path d="M 614.605 449.70000000000005  C 601.207 449.70000000000005  590.6800000000001 439.17300000000006  590.6800000000001 425.77500000000003  C 590.6800000000001 412.377  601.207 401.85  614.605 401.85  C 628.003 401.85  638.5300000000001 412.377  638.5300000000001 425.77500000000003  C 638.5300000000001 439.17300000000006  628.003 449.70000000000005  614.605 449.70000000000005  " fill-rule="nonzero" fill="rgba(204, 204, 204, 1)" stroke="none" class="fill" />
    <path d="M 330 643  L 330 500.54999999999995  L 454.75 435.79999999999995  L 629.4 554.3191413237925  L 729.2 474.65  L 829 554.3191413237925  L 829 643  L 330 643  " fill-rule="nonzero" fill="rgba(22, 155, 213, 1)" stroke="none" class="fill" />
  </g>
</svg>